<?xml version="1.0" encoding="UTF-8"?><svg id="Layer_1" xmlns="http://www.w3.org/2000/svg" viewBox="0 0 96 96"><defs><style>.cls-1{fill:none;stroke:#000;stroke-miterlimit:10;stroke-width:6px;}</style></defs><path d="M38.24,0V4h0c9.93,0,19.36,4.29,25.87,11.78,3.04,3.49,5.29,7.47,6.72,11.83,4.28,13.12,.32,27.45-10.1,36.5-6.23,5.42-14.21,8.4-22.46,8.4-9.93,0-19.36-4.29-25.87-11.78-6-6.91-8.96-15.74-8.32-24.86,.64-9.13,4.79-17.46,11.7-23.46,6.23-5.42,14.21-8.4,22.46-8.4V0m0,0C29.34,0,20.4,3.09,13.16,9.38-2.79,23.25-4.48,47.41,9.38,63.35c7.57,8.7,18.2,13.16,28.89,13.16,8.9,0,17.84-3.09,25.08-9.38,11.96-10.4,15.9-26.59,11.27-40.76-1.54-4.72-4.04-9.22-7.5-13.21C59.56,4.46,48.93,0,38.24,0h0Z"/><line class="cls-1" x1="63.53" y1="66.38" x2="87.63" y2="94.11"/></svg>